<svg width="36" height="36" viewBox="0 0 36 36" fill="none" xmlns="http://www.w3.org/2000/svg">
<path d="M25.63 21.5C25.77 20.345 25.875 19.19 25.875 18C25.875 16.81 25.77 15.655 25.63 14.5H31.545C31.825 15.62 32 16.7925 32 18C32 19.2075 31.825 20.38 31.545 21.5M22.5325 31.23C23.5825 29.2875 24.3875 27.1875 24.9475 25H30.11C28.4145 27.9195 25.7247 30.131 22.5325 31.23ZM22.095 21.5H13.905C13.73 20.345 13.625 19.19 13.625 18C13.625 16.81 13.73 15.6375 13.905 14.5H22.095C22.2525 15.6375 22.375 16.81 22.375 18C22.375 19.19 22.2525 20.345 22.095 21.5ZM18 31.93C16.5475 29.83 15.375 27.5025 14.6575 25H21.3425C20.625 27.5025 19.4525 29.83 18 31.93ZM11 11H5.89C7.568 8.07263 10.2559 5.8576 13.45 4.77C12.4 6.7125 11.6125 8.8125 11 11ZM5.89 25H11C11.6125 27.1875 12.4 29.2875 13.45 31.23C10.2626 30.1304 7.57848 27.9185 5.89 25ZM4.455 21.5C4.175 20.38 4 19.2075 4 18C4 16.7925 4.175 15.62 4.455 14.5H10.37C10.23 15.655 10.125 16.81 10.125 18C10.125 19.19 10.23 20.345 10.37 21.5M18 4.0525C19.4525 6.1525 20.625 8.4975 21.3425 11H14.6575C15.375 8.4975 16.5475 6.1525 18 4.0525ZM30.11 11H24.9475C24.3998 8.83255 23.5888 6.74032 22.5325 4.77C25.7525 5.8725 28.43 8.095 30.11 11ZM18 0.5C8.3225 0.5 0.5 8.375 0.5 18C0.5 22.6413 2.34374 27.0925 5.62563 30.3744C7.25066 31.9994 9.17984 33.2884 11.303 34.1679C13.4262 35.0474 15.7019 35.5 18 35.5C22.6413 35.5 27.0925 33.6563 30.3744 30.3744C33.6563 27.0925 35.5 22.6413 35.5 18C35.5 15.7019 35.0474 13.4262 34.1679 11.303C33.2884 9.17984 31.9994 7.25066 30.3744 5.62563C28.7493 4.00061 26.8202 2.71157 24.697 1.83211C22.5738 0.952651 20.2981 0.5 18 0.5Z" fill="#EBEBEC"/>
</svg>
