<svg width="80" height="80" viewBox="0 0 80 80" fill="none" xmlns="http://www.w3.org/2000/svg">
<path d="M30.0003 56.6667H50.0003M30.0003 46.6667H50.0003M63.3324 30H48.6657C46.7988 30 45.8664 29.9999 45.1533 29.6366C44.5261 29.3171 44.0165 28.8073 43.697 28.18C43.3337 27.467 43.3337 26.5335 43.3337 24.6667V10M63.3337 59.3334V32.18C63.3337 30.6349 63.3343 29.8624 63.1676 29.1311C63.0198 28.4825 62.7764 27.8596 62.4443 27.2833C62.0697 26.6334 61.5445 26.0666 60.4947 24.9329L49.8343 13.4196C48.6677 12.1596 48.0838 11.5296 47.3896 11.0781C46.7744 10.6779 46.0958 10.3821 45.3842 10.2026C44.5813 10 43.7244 10 42.0072 10H27.3343C23.6006 10 21.7324 10 20.3063 10.7266C19.0519 11.3658 18.0328 12.3857 17.3936 13.6401C16.667 15.0662 16.667 16.933 16.667 20.6667V59.3334C16.667 63.067 16.667 64.9338 17.3936 66.3599C18.0328 67.6143 19.0519 68.6341 20.3063 69.2733C21.7324 69.9999 23.6006 70 27.3343 70H52.6676C56.4013 70 58.2669 69.9999 59.6929 69.2733C60.9474 68.6341 61.9686 67.6143 62.6077 66.3599C63.3344 64.9338 63.3337 63.067 63.3337 59.3334Z" stroke="white" stroke-width="6.66667" stroke-linecap="round" stroke-linejoin="round"/>
</svg>
