<svg width="80" height="80" viewBox="0 0 80 80" fill="none" xmlns="http://www.w3.org/2000/svg">
<path d="M40.0003 73.3327C21.5908 73.3327 6.66699 58.4088 6.66699 39.9993C6.66699 21.5899 21.5908 6.66602 40.0003 6.66602C58.4098 6.66602 73.3336 21.5899 73.3336 39.9993C73.3134 58.4005 58.4014 73.3125 40.0003 73.3327ZM13.3337 40.5727C13.4914 55.2435 25.4707 67.0312 40.1421 66.9527C54.8135 66.8734 66.6654 54.9577 66.6654 40.286C66.6654 25.6144 54.8135 13.6986 40.1421 13.6193C25.4707 13.5409 13.4914 25.3285 13.3337 39.9993V40.5727ZM46.667 56.666H36.667V43.3327H33.3337V36.666H43.3337V49.9993H46.667V56.666ZM43.3337 29.9993H36.667V23.3327H43.3337V29.9993Z" fill="white"/>
</svg>
