<svg width="80" height="80" viewBox="0 0 80 80" fill="none" xmlns="http://www.w3.org/2000/svg">
<path d="M10.7266 23.6401L13.6966 25.1534L10.7266 23.6401ZM13.6393 20.7266L15.1526 23.6966L13.6393 20.7266ZM13.6393 59.2733L15.1526 56.3033H15.1526L13.6393 59.2733ZM10.7266 56.3601L7.7566 57.8734L10.7266 56.3601ZM69.2741 56.3601L66.3041 54.8468L69.2741 56.3601ZM66.3593 59.2733L64.846 56.3033L66.3593 59.2733ZM69.2741 23.6401L66.3041 25.1534V25.1534L69.2741 23.6401ZM66.3593 20.7266L67.8726 17.7566L66.3593 20.7266ZM36.6667 60C36.6667 61.841 38.159 63.3333 40 63.3333C41.8409 63.3333 43.3333 61.841 43.3333 60H36.6667ZM16.6667 60C16.6667 61.841 18.1591 63.3333 20 63.3333C21.8409 63.3333 23.3333 61.841 23.3333 60H16.6667ZM60 50C61.8409 50 63.3333 48.5076 63.3333 46.6667C63.3333 44.8257 61.841 43.3333 60 43.3333L60 50ZM46.6667 43.3333C44.8257 43.3333 43.3333 44.8257 43.3333 46.6667C43.3333 48.5076 44.8257 50 46.6667 50L46.6667 43.3333ZM60 40C61.8409 40 63.3333 38.5076 63.3333 36.6667C63.3333 34.8257 61.841 33.3333 60 33.3333V40ZM50 33.3333C48.159 33.3333 46.6667 34.8257 46.6667 36.6667C46.6667 38.5076 48.159 40 50 40V33.3333ZM30 40C28.159 40 26.6667 38.5076 26.6667 36.6667H20C20 42.1895 24.4772 46.6667 30 46.6667V40ZM26.6667 36.6667C26.6667 34.8257 28.159 33.3333 30 33.3333V26.6667C24.4772 26.6667 20 31.1438 20 36.6667H26.6667ZM30 33.3333C31.8409 33.3333 33.3333 34.8257 33.3333 36.6667H40C40 31.1438 35.5228 26.6667 30 26.6667V33.3333ZM33.3333 36.6667C33.3333 38.5076 31.8409 40 30 40V46.6667C35.5228 46.6667 40 42.1895 40 36.6667H33.3333ZM66.6667 30.6665V49.3332H73.3333V30.6665H66.6667ZM59.334 56.6667H20.6673V63.3333H59.334V56.6667ZM13.3333 49.3332V30.6665H6.66667V49.3332H13.3333ZM20.6673 23.3333H59.334V16.6667H20.6673V23.3333ZM13.3333 30.6665C13.3333 28.7447 13.3359 27.5038 13.4131 26.5594C13.4871 25.654 13.6127 25.3183 13.6966 25.1534L7.7566 22.1268C7.11397 23.3881 6.87624 24.6987 6.76857 26.0165C6.66407 27.2954 6.66667 28.8547 6.66667 30.6665H13.3333ZM20.6673 16.6667C18.8554 16.6667 17.2958 16.6641 16.0166 16.7686C14.6987 16.8762 13.3875 17.1139 12.126 17.7566L15.1526 23.6966C15.3172 23.6128 15.6532 23.4871 16.5593 23.4131C17.5042 23.3359 18.7455 23.3333 20.6673 23.3333V16.6667ZM13.6966 25.1534C14.0167 24.5254 14.5263 24.0158 15.1526 23.6966L12.126 17.7566C10.2435 18.7158 8.7149 20.2461 7.7566 22.1268L13.6966 25.1534ZM20.6673 56.6667C18.7456 56.6667 17.5042 56.6641 16.5594 56.5869C15.6533 56.5128 15.3173 56.3872 15.1526 56.3033L12.126 62.2433C13.3874 62.886 14.6986 63.1237 16.0165 63.2314C17.2958 63.3359 18.8554 63.3333 20.6673 63.3333V56.6667ZM6.66667 49.3332C6.66667 51.145 6.66407 52.7044 6.76856 53.9834C6.87623 55.3012 7.11393 56.6121 7.7566 57.8734L13.6966 54.8468C13.6127 54.682 13.4871 54.3463 13.4131 53.4406C13.3359 52.496 13.3333 51.255 13.3333 49.3332H6.66667ZM15.1526 56.3033C14.5259 55.9839 14.0165 55.4745 13.6966 54.8468L7.7566 57.8734C8.71508 59.7545 10.2439 61.2843 12.126 62.2433L15.1526 56.3033ZM66.6667 49.3332C66.6667 51.2553 66.6643 52.4963 66.5872 53.4411C66.5134 54.347 66.3878 54.6824 66.3041 54.8468L72.2441 57.8734C72.887 56.6117 73.1244 55.3005 73.2318 53.9829C73.3361 52.7041 73.3333 51.1447 73.3333 49.3332H66.6667ZM59.334 63.3333C61.1458 63.3333 62.7049 63.3359 63.9836 63.2314C65.3014 63.1236 66.6116 62.8858 67.8726 62.2433L64.846 56.3033C64.6809 56.3873 64.3453 56.5129 63.4404 56.5869C62.4963 56.664 61.2558 56.6667 59.334 56.6667V63.3333ZM66.3041 54.8468C65.9854 55.4723 65.4749 55.9828 64.846 56.3033L67.8726 62.2433C69.7525 61.2854 71.2845 59.7567 72.2441 57.8734L66.3041 54.8468ZM73.3333 30.6665C73.3333 28.855 73.3361 27.2957 73.2318 26.017C73.1244 24.6994 72.8869 23.3884 72.2441 22.1268L66.3041 25.1534C66.3879 25.3179 66.5134 25.6533 66.5872 26.5589C66.6643 27.5035 66.6667 28.7443 66.6667 30.6665H73.3333ZM59.334 23.3333C61.2559 23.3333 62.4964 23.3359 63.4405 23.4131C64.3454 23.487 64.681 23.6126 64.846 23.6966L67.8726 17.7566C66.6115 17.114 65.3013 16.8763 63.9835 16.7686C62.7049 16.6641 61.1458 16.6667 59.334 16.6667V23.3333ZM72.2441 22.1268C71.2847 20.2439 69.7529 18.7146 67.8726 17.7566L64.846 23.6966C65.4746 24.0169 65.9852 24.5276 66.3041 25.1534L72.2441 22.1268ZM43.3333 60C43.3333 56.6978 41.3257 54.1162 38.9201 52.5125C36.4912 50.8932 33.3277 50 30 50V56.6667C32.1951 56.6667 34.0317 57.2659 35.2221 58.0595C36.4358 58.8686 36.6667 59.6203 36.6667 60H43.3333ZM30 50C26.6723 50 23.5088 50.8932 21.0799 52.5125C18.6743 54.1162 16.6667 56.6978 16.6667 60H23.3333C23.3333 59.6203 23.5642 58.8686 24.7779 58.0595C25.9683 57.2659 27.8049 56.6667 30 56.6667V50ZM60 43.3333L46.6667 43.3333L46.6667 50L60 50L60 43.3333ZM60 33.3333L50 33.3333V40L60 40V33.3333Z" fill="white"/>
</svg>
